HIERARCHY
ROOT root
{
	OFFSET 0.00 0.00 0.00
	CHANNELS 6 Xposition Yposition Zposition Zrotation Xrotation Yrotation
	JOINT lowerback
	{
		OFFSET 0 0 0
		CHANNELS 6 Xposition Yposition Zposition Zrotation Xrotation Yrotation
		JOINT upperback
		{
			OFFSET -0.214371 12.3768 -1.12219
			CHANNELS 6 Xposition Yposition Zposition Zrotation Xrotation Yrotation
			JOINT thorax
			{
				OFFSET -0.00137213 12.3873 0.296195
				CHANNELS 6 Xposition Yposition Zposition Zrotation Xrotation Yrotation
				JOINT lowerneck
				{
					OFFSET 0.0883157 12.5016 0.82912
					CHANNELS 6 Xposition Yposition Zposition Zrotation Xrotation Yrotation
					JOINT upperneck
					{
						OFFSET -1 10.1794 0.943522
						CHANNELS 6 Xposition Yposition Zposition Zrotation Xrotation Yrotation
						JOINT head
						{
							OFFSET 0.667525 10.2797 -1.57149
							CHANNELS 6 Xposition Yposition Zposition Zrotation Xrotation Yrotation
							End Site
							{
								OFFSET 0 0 0
							}
						}
					}
				}
				JOINT lclavicle
				{
					OFFSET 0.0883157 12.5016 0.82912
					CHANNELS 6 Xposition Yposition Zposition Zrotation Xrotation Yrotation
					JOINT lhumerus
					{
						OFFSET 20.61 4.45006 1.43784
						CHANNELS 6 Xposition Yposition Zposition Zrotation Xrotation Yrotation
						JOINT lradius
						{
							OFFSET 0 -30.3438 0
							CHANNELS 6 Xposition Yposition Zposition Zrotation Xrotation Yrotation
							JOINT lwrist
							{
								OFFSET 0 -18.964 0
								CHANNELS 6 Xposition Yposition Zposition Zrotation Xrotation Yrotation
								JOINT lhand
								{
									OFFSET 0 -9.48199 0
									CHANNELS 6 Xposition Yposition Zposition Zrotation Xrotation Yrotation
									JOINT lfingers
									{
										OFFSET 0 -3.17138 0
										CHANNELS 6 Xposition Yposition Zposition Zrotation Xrotation Yrotation
										End Site
										{
											OFFSET 0 -2.55685 0
										}
									}
								}
								JOINT lthumb
								{
									OFFSET 0 -9.48199 0
									CHANNELS 6 Xposition Yposition Zposition Zrotation Xrotation Yrotation
									End Site
									{
										OFFSET 0 -3.67114 0
									}
								}
							}
						}
					}
				}
				JOINT rclavicle
				{
					OFFSET 0.0883157 12.5016 0.82912
					CHANNELS 6 Xposition Yposition Zposition Zrotation Xrotation Yrotation
					JOINT rhumerus
					{
						OFFSET -20.61 4.45 1.44
						CHANNELS 6 Xposition Yposition Zposition Zrotation Xrotation Yrotation
						JOINT rradius
						{
							OFFSET 0 -29.5102 0
							CHANNELS 6 Xposition Yposition Zposition Zrotation Xrotation Yrotation
							JOINT rwrist
							{
								OFFSET 0 -19.2342 0
								CHANNELS 6 Xposition Yposition Zposition Zrotation Xrotation Yrotation
								JOINT rhand
								{
									OFFSET 0 -9.61712 0
									CHANNELS 6 Xposition Yposition Zposition Zrotation Xrotation Yrotation
									JOINT rfingers
									{
										OFFSET 0 -3.29215 0
										CHANNELS 6 Xposition Yposition Zposition Zrotation Xrotation Yrotation
										End Site
										{
											OFFSET 0 -2.557 0
										}
									}
								}
								JOINT rthumb
								{
									OFFSET 0 -9.61712 0
									CHANNELS 6 Xposition Yposition Zposition Zrotation Xrotation Yrotation
									End Site
									{
										OFFSET 0 -3.671 0
									}
								}
							}
						}
					}
				}
			}
		}
	}
	JOINT rfemur
	{
		OFFSET -8.46272 -9.62775 4.76248
		CHANNELS 6 Xposition Yposition Zposition Zrotation Xrotation Yrotation
		JOINT rtibia
		{
			OFFSET 1.00552e-005 -38.0331 0
			CHANNELS 6 Xposition Yposition Zposition Zrotation Xrotation Yrotation
			JOINT rfoot
			{
				OFFSET 1.14428e-005 -43.2815 0
				CHANNELS 6 Xposition Yposition Zposition Zrotation Xrotation Yrotation
				JOINT rtoes
				{
					OFFSET 0 -14.1868 -3.08763
					CHANNELS 6 Xposition Yposition Zposition Zrotation Xrotation Yrotation
					End Site
					{
						OFFSET 0 -7.27332 0
					}
				}
			}
		}
	}
	JOINT lfemur
	{
		OFFSET 9.10607 -9.62778 4.76249
		CHANNELS 6 Xposition Yposition Zposition Zrotation Xrotation Yrotation
		JOINT ltibia
		{
			OFFSET -1.01399e-005 -38.3535 0
			CHANNELS 6 Xposition Yposition Zposition Zrotation Xrotation Yrotation
			JOINT lfoot
			{
				OFFSET -1.12937e-005 -42.7176 0
				CHANNELS 6 Xposition Yposition Zposition Zrotation Xrotation Yrotation
				JOINT ltoes
				{
					OFFSET 0 -13.9965 -2.83857
					CHANNELS 6 Xposition Yposition Zposition Zrotation Xrotation Yrotation
					End Site
					{
						OFFSET 0 -7.16348 0
					}
				}
			}
		}
	}
}
MOTION
Frames: 8
Frame Time: 0.00833333
-2.59489	98.8664	82.1874	-2.3113	-1.76587	2.92793	0 0 0 -0.830754	4.60711	-1.20795	-0.214371 12.3768 -1.12219 3.76644	0.608389	-1.57511	-0.00137213 12.3873 0.296195 4.46466	-1.8264	-0.772238	0.0883157 12.5016 0.82912 -10.5232	-15.0748	-2.78875	-1 10.1794 0.943522 8.34844	14.8323	-2.41136	0.667525 10.2797 -1.57149 3.1249	10.2335	-1.48368	0.0883157 12.5016 0.82912 -15	0	-0	20.61 4.45006 1.43784 17.0124	0.25902	-173.989	0 -30.3438 0 -0	39.0474	-0	0 -18.964 0 1.29405e-014	-3.76067e-015	-122.409	0 -9.48199 0 1.22245	4.37968	-2.58917e-014	0 -3.17138 0 -0	7.12502	-0	0 -9.48199 0 25	15	-1.36605e-015	0.0883157 12.5016 0.82912 15	0	-0	-20.61 4.45 1.44 -14.4047	7.46994	150.501	0 -29.5102 0 -0	21.0874	-0	0 -19.2342 0 2.4427e-015	-5.32097e-015	139.317	0 -9.61712 0 1.22	4.38	-0	0 -3.29215 0 -0	7.12502	-0	0 -9.61712 0 25	15	-7.97034e-015	-8.46272 -9.62775 4.76248 9.87978	-10.4095	8.34495	1.00552e-005 -38.0331 0 -0	27.9046	-0	1.14428e-005 -43.2815 0 -2.26816e-015	-72.3403	-2.42078e-015	0 -14.1868 -3.08763 -0	-28.5132	-0	9.10607 -9.62778 4.76249 3.20242	-19.1747	-1.08187	-1.01399e-005 -38.3535 0 -0	70.4177	-0	-1.12937e-005 -42.7176 0 2.60426e-015	-58.3373	3.31762e-015	0 -13.9965 -2.83857 -0	-38.5637	-0
-2.58097	98.815	83.5287	-2.57359	-1.68683	2.54158	0 0 0 -0.559805	4.52245	-1.02329	-0.214371 12.3768 -1.12219 3.7678	0.544264	-1.31367	-0.00137213 12.3873 0.296195 4.29403	-1.87218	-0.642433	0.0883157 12.5016 0.82912 -10.543	-15.0229	-2.8175	-1 10.1794 0.943522 8.40877	14.8985	-2.46763	0.667525 10.2797 -1.57149 3.14156	10.2526	-1.5069	0.0883157 12.5016 0.82912 -15	0	-0	20.61 4.45006 1.43784 16.8647	0.75991	-174.019	0 -30.3438 0 -0	38.6715	-0	0 -18.964 0 1.29448e-014	-3.75395e-015	-122.344	0 -9.48199 0 1.22245	4.37968	-2.58917e-014	0 -3.17138 0 -0	7.12502	-0	0 -9.48199 0 25	15	-1.36605e-015	0.0883157 12.5016 0.82912 15	0	-0	-20.61 4.45 1.44 -14.5206	7.21582	151.419	0 -29.5102 0 -0	21.6287	-0	0 -19.2342 0 2.35045e-015	-5.24025e-015	138.316	0 -9.61712 0 1.22	4.38	-0	0 -3.29215 0 -0	7.12502	-0	0 -9.61712 0 25	15	-7.97034e-015	-8.46272 -9.62775 4.76248 10.199	-9.51341	8.34244	1.00552e-005 -38.0331 0 -0	27.7687	-0	1.14428e-005 -43.2815 0 -2.37926e-015	-73.1045	-2.52686e-015	0 -14.1868 -3.08763 -0	-28.6603	-0	9.10607 -9.62778 4.76249 3.59125	-20.7459	-0.533367	-1.01399e-005 -38.3535 0 -0	70.5003	-0	-1.12937e-005 -42.7176 0 2.88984e-015	-60.748	3.56384e-015	0 -13.9965 -2.83857 -0	-39.2256	-0
-2.56689	98.7335	84.8706	-2.86758	-1.61362	2.11085	0 0 0 -0.25618	4.47351	-0.824676	-0.214371 12.3768 -1.12219 3.7708	0.446801	-1.03125	-0.00137213 12.3873 0.296195 4.10801	-1.97251	-0.501237	0.0883157 12.5016 0.82912 -10.5368	-14.9159	-2.85229	-1 10.1794 0.943522 8.4567	14.962	-2.54204	0.667525 10.2797 -1.57149 3.14697	10.2611	-1.53854	0.0883157 12.5016 0.82912 -15	0	-0	20.61 4.45006 1.43784 16.7565	1.33743	-174.141	0 -30.3438 0 -0	38.3473	-0	0 -18.964 0 1.29605e-014	-3.72908e-015	-122.104	0 -9.48199 0 1.22245	4.37968	-2.58917e-014	0 -3.17138 0 -0	7.12502	-0	0 -9.48199 0 25	15	-1.36605e-015	0.0883157 12.5016 0.82912 15	0	-0	-20.61 4.45 1.44 -14.6316	7.09348	152.482	0 -29.5102 0 -0	22.2953	-0	0 -19.2342 0 2.235e-015	-5.13512e-015	137.041	0 -9.61712 0 1.22	4.38	-0	0 -3.29215 0 -0	7.12502	-0	0 -9.61712 0 25	15	-7.97034e-015	-8.46272 -9.62775 4.76248 10.5747	-8.60009	8.43855	1.00552e-005 -38.0331 0 -0	27.6598	-0	1.14428e-005 -43.2815 0 -2.49863e-015	-73.8571	-2.64131e-015	0 -14.1868 -3.08763 -0	-28.931	-0	9.10607 -9.62778 4.76249 4.03384	-22.2299	0.0413018	-1.01399e-005 -38.3535 0 -0	70.372	-0	-1.12937e-005 -42.7176 0 3.14779e-015	-62.6534	3.79099e-015	0 -13.9965 -2.83857 -0	-38.8872	-0
-2.55202	98.6344	86.2096	-3.15481	-1.54131	1.6768	0 0 0 0.0473489	4.45772	-0.629206	-0.214371 12.3768 -1.12219 3.76841	0.343301	-0.752569	-0.00137213 12.3873 0.296195 3.91746	-2.09553	-0.361758	0.0883157 12.5016 0.82912 -10.519	-14.8182	-2.88474	-1 10.1794 0.943522 8.49806	15.0033	-2.61321	0.667525 10.2797 -1.57149 3.14815	10.2628	-1.56779	0.0883157 12.5016 0.82912 -15	0	-0	20.61 4.45006 1.43784 16.6737	1.94754	-174.311	0 -30.3438 0 -0	38.044	-0	0 -18.964 0 1.29778e-014	-3.70124e-015	-121.836	0 -9.48199 0 1.22245	4.37968	-2.58917e-014	0 -3.17138 0 -0	7.12502	-0	0 -9.48199 0 25	15	-1.36605e-015	0.0883157 12.5016 0.82912 15	0	-0	-20.61 4.45 1.44 -14.7538	7.0093	153.634	0 -29.5102 0 -0	23.0655	-0	0 -19.2342 0 2.11009e-015	-5.0159e-015	135.631	0 -9.61712 0 1.22	4.38	-0	0 -3.29215 0 -0	7.12502	-0	0 -9.61712 0 25	15	-7.97034e-015	-8.46272 -9.62775 4.76248 10.9466	-7.68118	8.58005	1.00552e-005 -38.0331 0 -0	27.5477	-0	1.14428e-005 -43.2815 0 -2.6247e-015	-74.5841	-2.76263e-015	0 -14.1868 -3.08763 -0	-29.202	-0	9.10607 -9.62778 4.76249 4.47601	-23.6389	0.600033	-1.01399e-005 -38.3535 0 -0	70.0291	-0	-1.12937e-005 -42.7176 0 3.38564e-015	-64.2172	4.00375e-015	0 -13.9965 -2.83857 -0	-38.0676	-0
-2.53568	98.53	87.5423	-3.39689	-1.46499	1.28053	0 0 0 0.318012	4.47252	-0.453986	-0.214371 12.3768 -1.12219 3.75288	0.261086	-0.502317	-0.00137213 12.3873 0.296195 3.7328	-2.2094	-0.237118	0.0883157 12.5016 0.82912 -10.5045	-14.7941	-2.9065	-1 10.1794 0.943522 8.53856	15.0032	-2.65967	0.667525 10.2797 -1.57149 3.15222	10.2645	-1.58387	0.0883157 12.5016 0.82912 -15	0	-0	20.61 4.45006 1.43784 16.6005	2.54601	-174.485	0 -30.3438 0 -0	37.7306	-0	0 -18.964 0 1.29874e-014	-3.68573e-015	-121.687	0 -9.48199 0 1.22245	4.37968	-2.58917e-014	0 -3.17138 0 -0	7.12502	-0	0 -9.48199 0 25	15	-1.36605e-015	0.0883157 12.5016 0.82912 15	0	-0	-20.61 4.45 1.44 -14.8976	6.86718	154.816	0 -29.5102 0 -0	23.9174	-0	0 -19.2342 0 1.98832e-015	-4.89382e-015	134.223	0 -9.61712 0 1.22	4.38	-0	0 -3.29215 0 -0	7.12502	-0	0 -9.61712 0 25	15	-7.97034e-015	-8.46272 -9.62775 4.76248 11.2581	-6.76791	8.71421	1.00552e-005 -38.0331 0 -0	27.4025	-0	1.14428e-005 -43.2815 0 -2.75507e-015	-75.2715	-2.88852e-015	0 -14.1868 -3.08763 -0	-29.3498	-0	9.10607 -9.62778 4.76249 4.85952	-24.9862	1.09891	-1.01399e-005 -38.3535 0 -0	69.4678	-0	-1.12937e-005 -42.7176 0 3.62004e-015	-65.6029	4.21605e-015	0 -13.9965 -2.83857 -0	-37.2861	-0
-2.5178	98.4227	88.867	-3.56651	-1.38445	0.93522	0 0 0 0.533334	4.52994	-0.303103	-0.214371 12.3768 -1.12219 3.71367	0.204513	-0.287133	-0.00137213 12.3873 0.296195 3.55616	-2.31543	-0.130709	0.0883157 12.5016 0.82912 -10.4956	-14.8818	-2.91048	-1 10.1794 0.943522 8.58538	14.961	-2.6685	0.667525 10.2797 -1.57149 3.16358	10.266	-1.57947	0.0883157 12.5016 0.82912 -15	0	-0	20.61 4.45006 1.43784 16.5433	3.13146	-174.681	0 -30.3438 0 -0	37.3856	-0	0 -18.964 0 1.29878e-014	-3.68521e-015	-121.682	0 -9.48199 0 1.22245	4.37968	-2.58917e-014	0 -3.17138 0 -0	7.12502	-0	0 -9.48199 0 25	15	-1.36605e-015	0.0883157 12.5016 0.82912 15	0	-0	-20.61 4.45 1.44 -15.0498	6.67234	156.055	0 -29.5102 0 -0	24.9096	-0	0 -19.2342 0 1.86601e-015	-4.76493e-015	132.772	0 -9.61712 0 1.22	4.38	-0	0 -3.29215 0 -0	7.12502	-0	0 -9.61712 0 25	15	-7.97034e-015	-8.46272 -9.62775 4.76248 11.4813	-5.87315	8.84967	1.00552e-005 -38.0331 0 -0	27.2382	-0	1.14428e-005 -43.2815 0 -2.88995e-015	-75.9223	-3.01916e-015	0 -14.1868 -3.08763 -0	-29.2626	-0	9.10607 -9.62778 4.76249 5.13451	-26.2802	1.52222	-1.01399e-005 -38.3535 0 -0	68.6895	-0	-1.12937e-005 -42.7176 0 3.83716e-015	-66.7669	4.41469e-015	0 -13.9965 -2.83857 -0	-36.4974	-0
-2.49868	98.3063	90.1857	-3.68999	-1.30196	0.61823	0 0 0 0.714845	4.62712	-0.167552	-0.214371 12.3768 -1.12219 3.65734	0.160001	-0.0938224	-0.00137213 12.3873 0.296195 3.38214	-2.42733	-0.0355698	0.0883157 12.5016 0.82912 -10.4849	-15.0401	-2.90278	-1 10.1794 0.943522 8.63356	14.8858	-2.65353	0.667525 10.2797 -1.57149 3.17763	10.2658	-1.56182	0.0883157 12.5016 0.82912 -15	0	-0	20.61 4.45006 1.43784 16.5088	3.72412	-174.913	0 -30.3438 0 -0	37.0299	-0	0 -18.964 0 1.29836e-014	-3.69198e-015	-121.747	0 -9.48199 0 1.22245	4.37968	-2.58917e-014	0 -3.17138 0 -0	7.12502	-0	0 -9.48199 0 25	15	-1.36605e-015	0.0883157 12.5016 0.82912 15	0	-0	-20.61 4.45 1.44 -15.2074	6.46402	157.366	0 -29.5102 0 -0	26.0322	-0	0 -19.2342 0 1.73973e-015	-4.62469e-015	131.231	0 -9.61712 0 1.22	4.38	-0	0 -3.29215 0 -0	7.12502	-0	0 -9.61712 0 25	15	-7.97034e-015	-8.46272 -9.62775 4.76248 11.6493	-4.98782	9.00688	1.00552e-005 -38.0331 0 -0	27.0634	-0	1.14428e-005 -43.2815 0 -3.03019e-015	-76.5417	-3.15537e-015	0 -14.1868 -3.08763 -0	-29.0325	-0	9.10607 -9.62778 4.76249 5.33362	-27.5129	1.89185	-1.01399e-005 -38.3535 0 -0	67.6954	-0	-1.12937e-005 -42.7176 0 4.0163e-015	-67.651	4.57985e-015	0 -13.9965 -2.83857 -0	-35.4859	-0
-2.47829	98.1798	91.5008	-3.80948	-1.21645	0.316888	0 0 0 0.896059	4.73921	-0.0448232	-0.214371 12.3768 -1.12219 3.60137	0.127962	0.0826643	-0.00137213 12.3873 0.296195 3.20951	-2.53187	0.0507003	0.0883157 12.5016 0.82912 -10.4728	-15.2137	-2.89484	-1 10.1794 0.943522 8.6705	14.7717	-2.63343	0.667525 10.2797 -1.57149 3.18767	10.2562	-1.54191	0.0883157 12.5016 0.82912 -15	0	-0	20.61 4.45006 1.43784 16.4783	4.31193	-175.131	0 -30.3438 0 -0	36.6963	-0	0 -18.964 0 1.29749e-014	-3.70603e-015	-121.882	0 -9.48199 0 1.22245	4.37968	-2.58917e-014	0 -3.17138 0 -0	7.12502	-0	0 -9.48199 0 25	15	-1.36605e-015	0.0883157 12.5016 0.82912 15	0	-0	-20.61 4.45 1.44 -15.3884	6.195	158.679	0 -29.5102 0 -0	27.1609	-0	0 -19.2342 0 1.62103e-015	-4.48563e-015	129.738	0 -9.61712 0 1.22	4.38	-0	0 -3.29215 0 -0	7.12502	-0	0 -9.61712 0 25	15	-7.97034e-015	-8.46272 -9.62775 4.76248 11.8007	-4.08975	9.15147	1.00552e-005 -38.0331 0 -0	26.84	-0	1.14428e-005 -43.2815 0 -3.17283e-015	-77.1191	-3.29426e-015	0 -14.1868 -3.08763 -0	-28.8422	-0	9.10607 -9.62778 4.76249 5.52026	-28.6731	2.21895	-1.01399e-005 -38.3535 0 -0	66.4816	-0	-1.12937e-005 -42.7176 0 4.17828e-015	-68.3971	4.73007e-015	0 -13.9965 -2.83857 -0	-34.5149	-0
